<svg version="1.1" xmlns="http://www.w3.org/2000/svg" xmlns:xlink="http://www.w3.org/1999/xlink" preserveAspectRatio="xMidYMid meet" viewBox="0 0 95 95">
    <g>
        <g>
            <g>
                <path fill="#1f344a"
                    d="M93.502,64.506c0,0-13.672,4.652-21.174,4.022l1.518,7.887l-4.421,2.929l-7.63-5.875l-4.784,1.007   L54.68,83.09l-6.055,0.161l-1.547-8.686c0,0-6.573-0.906-6.065-1.264c0.508-0.35-6.77,6.678-6.77,6.678l-5.437-3.272l2.464-8.859   l-4.559-3.734l-8.04,2.375l-3.417-4.683l6.262-6.323l-2.025-5.497l-6.701-7.303L7.833,45.94l1.212-12.304   C9.045,33.636,31.219,71.103,93.502,64.506z">
                    </path>
                <g>
                    <path fill="#255280" d="M60.837,61.571V30.605H44.781V58.02C49.485,59.561,54.823,60.804,60.837,61.571z"></path>
                    <path fill="#255280" d="M81.176,62.221V16.749H63.803v45.154C69.084,62.417,74.861,62.562,81.176,62.221z"></path>
                    <path fill="#255280" d="M40.493,56.473V40.281h-14.29v8.481C29.943,51.44,34.658,54.17,40.493,56.473z"></path>
                </g>
            </g>
        </g>
    </g>
</svg>
